<?xml version="1.0" encoding="utf-8"?>
<!-- Generator: Adobe Illustrator 15.0.0, SVG Export Plug-In . SVG Version: 6.00 Build 0)  -->
<!DOCTYPE svg PUBLIC "-//W3C//DTD SVG 1.1//EN" "http://www.w3.org/Graphics/SVG/1.1/DTD/svg11.dtd">
<svg version="1.1" id="Layer_1" xmlns="http://www.w3.org/2000/svg" xmlns:xlink="http://www.w3.org/1999/xlink" x="0px" y="0px"
	 width="600px" height="600px" viewBox="0 0 600 600" enable-background="new 0 0 600 600" xml:space="preserve">
<circle cx="298.371" cy="273.766" r="177.666"/>
<g>
	<path d="M135.952,497.207h8.427v1.646h-6.608v9.727h5.714v1.646h-5.714v6.607h-1.818V497.207z"/>
	<path d="M158.663,497.207h1.818v19.625h-1.818V497.207z"/>
	<path d="M178.631,504.596c-0.49-0.808-1.126-2.077-1.184-2.193c0,0.029,0.058,1.646,0.058,2.598v11.832h-1.73v-19.854h0.259
		l7.503,12.524c0.492,0.837,1.155,2.107,1.212,2.252c0-0.058-0.086-1.617-0.086-2.656v-11.891h1.761v19.857h-0.318L178.631,504.596z
		"/>
	<path d="M201.601,497.207h2.972c5.252,0,8.196,3.868,8.196,9.553v0.52c0,5.628-3.031,9.553-8.196,9.553h-2.972V497.207z
		 M204.458,515.187c4.127,0,6.436-3.231,6.436-7.964v-0.405c0-4.761-2.021-7.965-6.436-7.965h-1.039v16.334H204.458z"/>
	<path d="M247.049,510.801l-5.079-13.594h1.876l3.289,8.832c0.376,1.039,0.837,2.683,0.895,2.857
		c0.029-0.086,0.491-1.761,0.895-2.857l3.232-8.832h1.79l-5.05,13.594v6.031h-1.847V510.801z"/>
	<path d="M265.922,507.396v-0.75c0-5.831,2.567-9.668,6.579-9.668c4.041,0,6.58,3.837,6.58,9.668v0.75
		c0,5.829-2.539,9.669-6.58,9.669C268.49,517.064,265.922,513.225,265.922,507.396z M277.206,507.365v-0.691
		c0-4.907-1.818-8.022-4.704-8.022c-2.885,0-4.704,3.115-4.704,8.022v0.691c0,4.907,1.818,8.024,4.704,8.024
		C275.387,515.39,277.206,512.272,277.206,507.365z"/>
	<path d="M293.22,511.552v-14.345h1.847v14.286c0,2.569,1.242,3.896,3.29,3.896c2.079,0,3.319-1.327,3.319-3.896v-14.286h1.847
		v14.345c0,3.635-2.078,5.513-5.166,5.513C295.297,517.064,293.22,515.187,293.22,511.552z"/>
	<path d="M323.577,511.58c-0.692,0.201-1.472,0.288-2.279,0.288h-0.895v4.964h-1.819v-19.625h2.714c4.386,0,7.041,2.888,7.041,7.187
		v0.318c0,2.771-1.154,4.964-3.175,6.175l3.289,5.945h-1.989L323.577,511.58z M320.403,510.281h0.865
		c3.491,0,5.224-2.338,5.224-5.598v-0.261c0-3.348-1.732-5.57-5.224-5.57h-0.865V510.281z"/>
	<path d="M357.714,515.043l1.154-1.271c0.837,0.838,1.817,1.646,3.492,1.646c1.991,0,3.146-1.27,3.146-3.146v-0.289
		c0-1.354-0.722-2.597-2.136-3.838l-2.106-1.904c-1.646-1.473-2.713-2.857-2.713-4.907v-0.201c0-2.539,1.79-4.155,4.242-4.155
		c1.731,0,2.685,0.433,3.723,1.271l-0.981,1.414c-0.778-0.665-1.472-1.039-2.712-1.039c-1.472,0-2.481,1.01-2.481,2.481v0.143
		c0,1.532,0.836,2.484,2.191,3.695l2.079,1.847c1.761,1.588,2.742,3.175,2.742,5.137v0.347c0,2.857-1.819,4.792-4.936,4.792
		C360.08,517.064,358.666,516.11,357.714,515.043z"/>
	<path d="M381.664,497.207h2.598c4.386,0,7.042,2.888,7.042,7.187v0.318c0,4.242-2.599,7.185-7.042,7.185h-0.779v4.936h-1.818
		V497.207z M383.482,510.281h0.75c3.521,0,5.225-2.338,5.225-5.598v-0.261c0-3.348-1.704-5.57-5.225-5.57h-0.75V510.281z"/>
	<path d="M408.732,497.006h0.201l6.003,19.826h-1.904l-0.924-3.117h-6.638l-0.895,3.117h-1.817L408.732,497.006z M405.933,512.157
		h5.743l-2.223-7.619c-0.288-0.981-0.606-2.25-0.635-2.453c-0.029,0.144-0.347,1.443-0.634,2.453L405.933,512.157z"/>
	<path d="M427.2,507.396v-0.75c0-5.656,2.568-9.668,7.042-9.668c1.414,0,2.511,0.403,3.435,1.067l-0.865,1.473
		c-0.694-0.492-1.472-0.837-2.541-0.837c-3.376,0-5.194,3.404-5.194,7.993v0.691c0,4.648,1.79,8.024,5.194,8.024
		c1.213,0,2.079-0.433,2.886-1.01l0.838,1.413c-0.867,0.722-2.135,1.271-3.839,1.271C429.711,517.064,427.2,513.109,427.2,507.396z"
		/>
	<path d="M451.93,497.207h8.601v1.646h-6.783v9.727h5.829v1.646h-5.829v4.962h7.042v1.646h-8.859V497.207z"/>
</g>
<g>
	<path fill="#FFFFFF" d="M163.75,252.261h7.034c12.43,0,19.395,9.152,19.395,22.606v1.229c0,13.317-7.17,22.605-19.395,22.605
		h-7.034V252.261z M170.511,294.808c9.767,0,15.23-7.648,15.23-18.849v-0.956c0-11.269-4.781-18.85-15.23-18.85h-2.459v38.654
		H170.511z"/>
	<path fill="#FFFFFF" d="M217.079,252.261h20.353v3.893h-16.048v23.016h13.795v3.893h-13.795v11.746h16.663v3.893h-20.967V252.261z"
		/>
	<path fill="#FFFFFF" d="M262.146,294.467l2.731-3.005c1.98,1.981,4.303,3.894,8.264,3.894c4.712,0,7.444-3.005,7.444-7.445v-0.683
		c0-3.21-1.708-6.146-5.054-9.083l-4.985-4.507c-3.894-3.483-6.419-6.761-6.419-11.609v-0.479c0-6.009,4.233-9.833,10.039-9.833
		c4.098,0,6.351,1.023,8.811,3.005l-2.322,3.346c-1.844-1.571-3.483-2.458-6.419-2.458c-3.484,0-5.874,2.39-5.874,5.873v0.341
		c0,3.62,1.98,5.874,5.191,8.742l4.917,4.371c4.167,3.757,6.489,7.513,6.489,12.157v0.819c0,6.761-4.303,11.337-11.679,11.337
		C267.746,299.248,264.4,296.994,262.146,294.467z"/>
	<path fill="#FFFFFF" d="M311.993,252.261h4.305v26.908l14.613-26.908h4.849l-12.635,23.22l13.454,23.22h-4.916l-11.27-19.395
		l-4.096,7.171v12.224h-4.305V252.261z"/>
	<path fill="#FFFFFF" d="M421.934,286.272c-1.64,0.478-3.483,0.683-5.396,0.683h-2.116v11.746h-4.304v-46.44h6.42
		c10.382,0,16.664,6.83,16.664,17.005v0.752c0,6.556-2.731,11.746-7.511,14.614l7.784,14.068h-4.712L421.934,286.272z
		 M414.421,283.198h2.048c8.264,0,12.362-5.531,12.362-13.249v-0.615c0-7.922-4.099-13.181-12.362-13.181h-2.048V283.198z"/>
</g>
<g>
	<rect x="361" y="294" fill="#FFFFFF" width="22" height="5"/>
	<rect x="361" y="278" fill="#FFFFFF" width="22" height="4"/>
	<rect x="361" y="253" fill="#FFFFFF" width="22" height="4"/>
</g>
</svg>
