<?xml version="1.0" encoding="utf-8"?>
<!-- Generator: Adobe Illustrator 15.0.0, SVG Export Plug-In . SVG Version: 6.00 Build 0)  -->
<!DOCTYPE svg PUBLIC "-//W3C//DTD SVG 1.1//EN" "http://www.w3.org/Graphics/SVG/1.1/DTD/svg11.dtd">
<svg version="1.1" id="Layer_1" xmlns="http://www.w3.org/2000/svg" xmlns:xlink="http://www.w3.org/1999/xlink" x="0px" y="0px"
	 width="600px" height="600px" viewBox="0 0 600 600" enable-background="new 0 0 600 600" xml:space="preserve">
<g>
	<path fill="#FFFFFF" d="M428.831,269.334c0-7.922-4.099-13.181-12.362-13.181h-2.048v27.045h2.048
		c8.266,0,12.362-5.531,12.362-13.249V269.334z"/>
	<path fill="#FFFFFF" d="M170.511,256.153h-2.459v38.654l2.459,0.001c9.767,0,15.23-7.648,15.23-18.849v-0.956
		C185.741,263.734,180.96,256.153,170.511,256.153z"/>
	<path fill="#FFFFFF" d="M298.371,96.1c-98.122,0-177.666,79.543-177.666,177.666s79.544,177.666,177.666,177.666
		s177.666-79.543,177.666-177.666S396.493,96.1,298.371,96.1z M190.179,276.096c0,13.317-7.17,22.605-19.395,22.605h-7.034v-46.44
		h7.034c12.43,0,19.395,9.152,19.395,22.606V276.096z M238.047,298.702H217.08l-0.001-46.441h20.353v3.893h-16.048v23.016h13.795
		v3.893h-13.795v11.746h16.663V298.702z M284.959,287.913c0,6.761-4.303,11.337-11.679,11.337c-5.534-0.002-8.88-2.256-11.134-4.783
		l2.731-3.005c1.98,1.981,4.303,3.894,8.264,3.894c4.712,0,7.444-3.005,7.444-7.445v-0.683c0-3.21-1.708-6.146-5.054-9.083
		l-4.985-4.507c-3.894-3.483-6.419-6.761-6.419-11.609v-0.479c0-6.009,4.233-9.833,10.039-9.833c4.098,0,6.351,1.023,8.811,3.005
		l-2.322,3.346c-1.844-1.571-3.483-2.458-6.419-2.458c-3.484,0-5.874,2.39-5.874,5.873v0.341c0,3.62,1.98,5.874,5.191,8.742
		l4.917,4.371c4.167,3.757,6.489,7.513,6.489,12.157V287.913z M331.663,298.701l-11.271-19.395l-4.097,7.171v12.224h-4.305
		l0.002-46.44h4.305v26.908l14.613-26.908h4.849l-12.635,23.22l13.454,23.22H331.663z M383,299h-22v-5h22V299z M383,282h-22v-4h22
		V282z M383,257h-22v-4h22V257z M421.934,286.272c-1.64,0.478-3.481,0.683-5.396,0.683h-2.116v11.746h-4.304v-46.44h6.42
		c10.382,0,16.664,6.83,16.664,17.005v0.752c0,6.556-2.731,11.746-7.511,14.614l7.782,14.068h-4.712L421.934,286.272z"/>
</g>
</svg>
