<?xml version="1.0" encoding="utf-8"?>
<!-- Generator: Adobe Illustrator 15.0.0, SVG Export Plug-In . SVG Version: 6.00 Build 0)  -->
<!DOCTYPE svg PUBLIC "-//W3C//DTD SVG 1.1//EN" "http://www.w3.org/Graphics/SVG/1.1/DTD/svg11.dtd">
<svg version="1.1" id="Layer_1" xmlns="http://www.w3.org/2000/svg" xmlns:xlink="http://www.w3.org/1999/xlink" x="0px" y="0px"
	 width="48px" height="48px" viewBox="0 0 48 48" enable-background="new 0 0 48 48" xml:space="preserve">
<circle cx="24.162" cy="23.558" r="23.124"/>
<g>
	<path fill="#FFFFFF" d="M6.64,20.759h0.916c1.617,0,2.524,1.191,2.524,2.941v0.16c0,1.733-0.933,2.941-2.524,2.941H6.64V20.759z
		 M7.521,26.297c1.27,0,1.982-0.996,1.982-2.454v-0.124c0-1.467-0.623-2.454-1.982-2.454h-0.32v5.032H7.521z"/>
	<path fill="#FFFFFF" d="M13.581,20.759h2.649v0.506h-2.087v2.995h1.794v0.507h-1.794v1.53h2.168v0.505h-2.73V20.759z"/>
	<path fill="#FFFFFF" d="M19.446,26.251l0.356-0.391c0.258,0.258,0.56,0.507,1.075,0.507c0.614,0,0.968-0.392,0.968-0.969V25.31
		c0-0.418-0.221-0.8-0.656-1.183l-0.649-0.586c-0.507-0.453-0.837-0.88-0.837-1.511v-0.062c0-0.782,0.551-1.281,1.307-1.281
		c0.533,0,0.826,0.133,1.147,0.391l-0.302,0.436c-0.24-0.204-0.455-0.32-0.837-0.32c-0.453,0-0.765,0.312-0.765,0.765v0.044
		c0,0.471,0.258,0.765,0.678,1.138l0.638,0.568c0.542,0.49,0.846,0.979,0.846,1.583v0.106c0,0.881-0.56,1.476-1.521,1.476
		C20.176,26.874,19.742,26.581,19.446,26.251z"/>
	<path fill="#FFFFFF" d="M25.935,20.759h0.56v3.501l1.903-3.501h0.632l-1.646,3.021l1.751,3.021h-0.641l-1.467-2.522l-0.533,0.933
		v1.589h-0.56V20.759z"/>
	<path fill="#FFFFFF" d="M40.245,25.185c-0.214,0.063-0.455,0.09-0.704,0.09h-0.275v1.527h-0.559v-6.042h0.834
		c1.354,0,2.171,0.888,2.171,2.213v0.098c0,0.854-0.356,1.529-0.979,1.902l1.014,1.829h-0.611L40.245,25.185z M39.266,24.785h0.267
		c1.075,0,1.611-0.719,1.611-1.724v-0.08c0-1.03-0.536-1.715-1.611-1.715h-0.267V24.785z"/>
</g>
<g>
	<rect x="32" y="26" fill="#FFFFFF" width="3" height="1"/>
	<rect x="32" y="24" fill="#FFFFFF" width="3" height="1"/>
	<rect x="32" y="21" fill="#FFFFFF" width="3" height="1"/>
	<rect x="32" y="21" fill="#FFFFFF" width="3" height="0"/>
</g>
</svg>
